HIERARCHY
ROOT SpineBase
{
  OFFSET 0.000000 0.000000 0.000000
  CHANNELS 6 Xposition Yposition Zposition Zrotation Xrotation Yrotation
  JOINT SpineMid
  {
    OFFSET 0.000000 32.852247 0.000000
    CHANNELS 3 Zrotation Xrotation Yrotation
    JOINT SpineShoulder
    {
      OFFSET -0.060787 24.181492 -1.910682
      CHANNELS 3 Zrotation Xrotation Yrotation
      JOINT Neck
      {
        OFFSET -0.057960 7.908280 -1.564696
        CHANNELS 3 Zrotation Xrotation Yrotation
        JOINT Head
        {
          OFFSET 6.242395 10.129504 3.843743
          CHANNELS 3 Zrotation Xrotation Yrotation
          End Site
          {
            OFFSET 0 0 0
          }
        }
      }
      JOINT ShoulderLeft
      {
        OFFSET -3.242469 -3.576833 -14.047312
        CHANNELS 3 Zrotation Xrotation Yrotation
        JOINT ElbowLeft
        {
          OFFSET 0.685764 -25.830683 -4.917408
          CHANNELS 3 Zrotation Xrotation Yrotation
          JOINT WristLeft
          {
            OFFSET 5.599447 -20.534529 0.917814
            CHANNELS 3 Zrotation Xrotation Yrotation
            JOINT HandLeft
            {
              OFFSET -0.527369 -7.789618 3.421222
              CHANNELS 3 Zrotation Xrotation Yrotation
              JOINT HandTipLeft
              {
                OFFSET 1.706645 -7.758114 1.528333
                CHANNELS 3 Zrotation Xrotation Yrotation
                End Site
                {
                  OFFSET 0 0 0
                }
              }
              JOINT ThumbLeft
              {
                OFFSET 4.225436 3.343350 3.999178
                CHANNELS 3 Zrotation Xrotation Yrotation
                End Site
                {
                  OFFSET 0 0 0
                }
              }
            }
          }
        }
      }
      JOINT ShoulderRight
      {
        OFFSET 2.709132 -4.840645 15.296499
        CHANNELS 3 Zrotation Xrotation Yrotation
        JOINT ElbowRight
        {
          OFFSET -3.260940 -7.681437 -26.647905
          CHANNELS 3 Zrotation Xrotation Yrotation
          JOINT WristRight
          {
            OFFSET -4.554729 11.076956 -16.585443
            CHANNELS 3 Zrotation Xrotation Yrotation
            JOINT HandRight
            {
              OFFSET -1.617578 3.620581 -5.104699
              CHANNELS 3 Zrotation Xrotation Yrotation
              JOINT HandTipRight
              {
                OFFSET -3.422959 1.244189 0.868534
                CHANNELS 3 Zrotation Xrotation Yrotation
                End Site
                {
                  OFFSET 0 0 0
                }
              }
              JOINT ThumbRight
              {
                OFFSET 1.569589 3.993042 4.600575
                CHANNELS 3 Zrotation Xrotation Yrotation
                End Site
                {
                  OFFSET 0 0 0
                }
              }
            }
          }
        }
      }
    }
  }
  JOINT HipLeft
  {
    OFFSET -0.443346 2.013264 -10.245262
    CHANNELS 3 Zrotation Xrotation Yrotation
    JOINT KneeLeft
    {
      OFFSET -4.725998 -35.329398 3.800418
      CHANNELS 3 Zrotation Xrotation Yrotation
      JOINT AnkleLeft
      {
        OFFSET -9.370085 -32.638720 3.503843
        CHANNELS 3 Zrotation Xrotation Yrotation
        JOINT FootLeft
        {
          OFFSET 3.043900 -6.384191 3.436786
          CHANNELS 3 Zrotation Xrotation Yrotation
          End Site
          {
            OFFSET 0 0 0
          }
        }
      }
    }
  }
  JOINT HipRight
  {
    OFFSET 2.094069 0.454877 2.933607
    CHANNELS 3 Zrotation Xrotation Yrotation
    JOINT KneeRight
    {
      OFFSET 2.279254 -31.761450 13.647000
      CHANNELS 3 Zrotation Xrotation Yrotation
      JOINT AnkleRight
      {
        OFFSET -11.892415 -36.631282 -3.584126
        CHANNELS 3 Zrotation Xrotation Yrotation
        JOINT FootRight
        {
          OFFSET 7.358004 -4.147605 -2.894979
          CHANNELS 3 Zrotation Xrotation Yrotation
          End Site
          {
            OFFSET 0 0 0
          }
        }
      }
    }
  }
}
MOTION
Frames: 5
Frame Time: 0.033333
-67.788938 73.737625 312.059355 0.522335 -2.099739 -79.130022 -2.160535 -0.117090 79.137387 -0.957296 4.178991 -0.124750 0.448460 -3.119136 -0.291892 0.000000 0.000000 0.000000 0.968958 -4.176307 0.195008 -0.266713 0.845252 0.220750 0.751972 0.045886 -0.060306 -6.751304 -2.399628 -1.922772 0.000000 0.000000 0.000000 0.000000 0.000000 0.000000 1.169895 -2.322387 -1.219958 0.706209 -5.339508 1.214404 0.092411 -0.221863 -0.156318 -0.897065 3.718136 0.448127 0.000000 0.000000 0.000000 0.000000 0.000000 0.000000 -2.160535 -0.117090 79.137387 -0.000000 0.000000 0.000000 -9.837285 15.762032 4.090326 0.000000 0.000000 0.000000 -4.162019 -0.843007 78.780776 0.818817 -4.201591 1.144561 4.175336 4.100885 -0.547259 0.000000 0.000000 0.000000
-67.718038 73.818218 311.988741 0.579049 -2.029822 -79.464584 -2.101442 -0.198236 79.471206 -0.942226 4.210322 -0.121815 0.323623 -3.076019 -0.306536 0.000000 0.000000 0.000000 0.953738 -4.207733 0.191488 -0.141939 0.916147 0.244785 1.082611 -0.462020 0.152668 -6.895636 -1.836266 -2.005398 0.000000 0.000000 0.000000 0.000000 0.000000 0.000000 1.401903 -3.642326 -1.547958 0.263594 -3.148649 1.650280 0.070705 -0.163352 -0.116184 -0.697804 2.751933 0.272606 0.000000 0.000000 0.000000 0.000000 0.000000 0.000000 -1.429883 -0.866397 79.524561 0.534914 0.781839 -0.050765 -10.114904 15.570700 3.840619 0.000000 0.000000 0.000000 -4.050168 -1.061465 79.055226 0.787305 -3.766262 1.090039 -6.869330 -2.988674 -5.379306 0.000000 0.000000 0.000000
-67.659292 74.037250 311.924638 0.620171 -1.968697 -80.083929 -2.046044 -0.271962 80.089729 -0.926964 4.242909 -0.118838 0.065662 -2.926116 -0.344677 0.000000 0.000000 0.000000 0.938323 -4.240415 0.187915 -0.037529 0.984328 0.267188 1.430839 -0.795759 0.356415 -8.478008 -1.021581 -2.293997 0.000000 0.000000 0.000000 0.000000 0.000000 0.000000 1.085829 -5.725185 0.345525 -0.405700 3.675337 0.376238 3.410540 1.312945 5.699499 -3.492938 -3.171312 -6.274352 0.000000 0.000000 0.000000 0.000000 0.000000 0.000000 -1.095673 -1.048933 80.178912 0.603438 1.068953 -0.083857 -10.215147 15.744980 3.913904 0.000000 0.000000 0.000000 -4.057877 -0.944288 79.766477 0.699453 -3.786017 0.960058 -12.255817 -5.736475 -7.910524 0.000000 0.000000 0.000000
-67.576916 74.335454 311.862207 0.673892 -1.914170 -80.698471 -1.997881 -0.355709 80.703527 -0.881867 4.289923 -0.110827 -0.134889 -2.830840 -0.392941 0.000000 0.000000 0.000000 0.059856 -4.117701 0.278829 0.873962 0.882012 0.128467 1.389797 -0.982999 0.361034 -8.601520 -1.066881 -2.366950 0.000000 0.000000 0.000000 0.000000 0.000000 0.000000 0.428402 -8.657102 4.145037 -0.503976 15.232004 -2.152475 -1.023811 0.287767 -1.020374 2.943405 -11.084145 -0.462499 0.000000 0.000000 0.000000 0.000000 0.000000 0.000000 -0.618286 -1.272492 80.851382 0.685647 1.507762 -0.137274 -10.391578 15.405019 3.607344 0.000000 0.000000 0.000000 -4.432100 -1.289107 80.261299 0.829305 -3.334635 0.812331 -5.642448 -2.569705 -3.080344 0.000000 0.000000 0.000000
-67.484032 74.647982 311.804979 0.732440 -1.868697 -81.207895 -1.958650 -0.438263 81.212349 -0.867484 4.325439 -0.107975 -0.146455 -2.782686 -0.448099 0.000000 0.000000 0.000000 -0.026395 -4.195766 0.281803 0.980340 0.958526 0.126399 1.289899 -1.235007 0.338007 -7.598833 -1.174381 -2.212768 0.000000 0.000000 0.000000 0.000000 0.000000 0.000000 -0.159338 -12.453447 9.342343 1.282859 31.214955 -5.753205 -3.274139 -1.592810 -6.883482 9.453014 -20.561035 4.477391 0.000000 0.000000 0.000000 0.000000 0.000000 0.000000 -0.087911 -1.481904 81.431524 0.752971 2.005252 -0.201003 -10.536191 14.879943 3.190329 0.000000 0.000000 0.000000 -4.454730 -1.213305 80.848470 0.983514 -3.475944 0.728971 -10.074757 -4.951231 -5.495751 0.000000 0.000000 0.000000
